<svg width="20" height="20" viewBox="0 0 20 20" fill="none" xmlns="http://www.w3.org/2000/svg">
<g id="Frame">
<path id="Vector" d="M17.5 6.66675V10.0001H15.8333V7.50008H11.6667V3.33341H4.16667V16.6667H9.16667V18.3334H3.32783C2.87079 18.3334 2.5 17.9634 2.5 17.5069V2.49325C2.5 2.04617 2.87392 1.66675 3.33518 1.66675H12.4973L17.5 6.66675ZM11.4881 12.7725C11.5205 12.1665 11.9882 11.6737 12.5917 11.6095L13.3172 11.5325C13.4034 11.5233 13.4846 11.4872 13.5491 11.4292L14.0918 10.9417C14.5433 10.536 15.2224 10.5182 15.6945 10.8997L16.2621 11.3582C16.3295 11.4127 16.4124 11.4445 16.499 11.4492L17.2276 11.4882C17.8336 11.5206 18.3264 11.9882 18.3906 12.5917L18.4676 13.3173C18.4768 13.4035 18.5129 13.4847 18.5708 13.5492L19.0584 14.0919C19.4641 14.5433 19.4818 15.2225 19.1004 15.6946L18.6418 16.2622C18.5874 16.3296 18.5556 16.4125 18.5509 16.4991L18.5119 17.2277C18.4795 17.8337 18.0118 18.3265 17.4083 18.3907L16.6827 18.4677C16.5966 18.4768 16.5154 18.513 16.4509 18.5709L15.9082 19.0585C15.4567 19.4642 14.7776 19.4819 14.3055 19.1005L13.7379 18.6419C13.6705 18.5875 13.5876 18.5557 13.501 18.551L12.7724 18.512C12.1664 18.4796 11.6736 18.0119 11.6094 17.4084L11.5324 16.6828C11.5232 16.5967 11.4871 16.5155 11.4292 16.451L10.9416 15.9082C10.5359 15.4568 10.5182 14.7776 10.8996 14.3056L11.3582 13.738C11.4126 13.6706 11.4444 13.5877 11.4491 13.5011L11.4881 12.7725ZM17.5252 14.192L16.6414 13.3082L14.5833 15.3662L13.3586 14.1415L12.4747 15.0253L14.5833 17.134L17.5252 14.192Z" fill="white"/>
</g>
</svg>
