<svg width="20" height="20" viewBox="0 0 20 20" fill="none" xmlns="http://www.w3.org/2000/svg">
<g id="Frame">
<path id="Vector" d="M17.5 6.66663V9.99996H15.8333V7.49996H11.6667V3.33329H4.16667V16.6666H9.16667V18.3333H3.32783C2.87079 18.3333 2.5 17.9633 2.5 17.5068V2.49313C2.5 2.04605 2.87392 1.66663 3.33518 1.66663H12.4973L17.5 6.66663ZM11.4881 12.7724C11.5205 12.1664 11.9882 11.6735 12.5917 11.6094L13.3172 11.5324C13.4034 11.5232 13.4846 11.487 13.5491 11.4291L14.0918 10.9415C14.5433 10.5359 15.2224 10.5181 15.6945 10.8995L16.2621 11.3581C16.3295 11.4125 16.4124 11.4444 16.499 11.449L17.2276 11.488C17.8336 11.5205 18.3264 11.9881 18.3906 12.5916L18.4676 13.3172C18.4768 13.4034 18.5129 13.4845 18.5708 13.549L19.0584 14.0918C19.4641 14.5432 19.4818 15.2224 19.1004 15.6945L18.6418 16.262C18.5874 16.3295 18.5556 16.4124 18.5509 16.499L18.5119 17.2275C18.4795 17.8335 18.0118 18.3264 17.4083 18.3905L16.6827 18.4675C16.5966 18.4767 16.5154 18.5129 16.4509 18.5708L15.9082 19.0584C15.4567 19.464 14.7776 19.4818 14.3055 19.1004L13.7379 18.6418C13.6705 18.5874 13.5876 18.5555 13.501 18.5509L12.7724 18.5119C12.1664 18.4795 11.6736 18.0118 11.6094 17.4083L11.5324 16.6827C11.5232 16.5965 11.4871 16.5154 11.4292 16.4509L10.9416 15.9081C10.5359 15.4567 10.5182 14.7775 10.8996 14.3055L11.3582 13.7379C11.4126 13.6705 11.4444 13.5875 11.4491 13.501L11.4881 12.7724ZM17.5252 14.1919L16.6414 13.308L14.5833 15.366L13.3586 14.1414L12.4747 15.0252L14.5833 17.1339L17.5252 14.1919Z" fill="#ABACAF"/>
</g>
</svg>
