<svg width="20" height="20" viewBox="0 0 20 20" fill="none" xmlns="http://www.w3.org/2000/svg">
<g id="Frame">
<path id="Vector" d="M6.66683 2.5C3.44517 2.5 0.833496 5.11168 0.833496 8.33333C0.833496 11.555 3.44517 14.1667 6.66683 14.1667H7.55924C7.52031 13.8945 7.50016 13.6163 7.50016 13.3333C7.50016 13.0504 7.52031 12.7722 7.55924 12.5H6.66683C4.36565 12.5 2.50016 10.6345 2.50016 8.33333C2.50016 6.03215 4.36565 4.16667 6.66683 4.16667H13.3335C15.6347 4.16667 17.5002 6.03215 17.5002 8.33333C17.5002 8.619 17.4714 8.89792 17.4167 9.16733C17.9046 9.64567 18.3088 10.209 18.6055 10.8333C18.9654 10.0756 19.1668 9.228 19.1668 8.33333C19.1668 5.11168 16.5552 2.5 13.3335 2.5H6.66683ZM13.3335 10.8333C11.9527 10.8333 10.8335 11.9526 10.8335 13.3333C10.8335 14.7141 11.9527 15.8333 13.3335 15.8333C14.7142 15.8333 15.8335 14.7141 15.8335 13.3333C15.8335 11.9526 14.7142 10.8333 13.3335 10.8333ZM9.16683 13.3333C9.16683 11.0322 11.0323 9.16667 13.3335 9.16667C15.6347 9.16667 17.5002 11.0322 17.5002 13.3333C17.5002 14.1826 17.2461 14.9725 16.8098 15.6312L18.9227 17.7441L17.7442 18.9226L15.6313 16.8097C14.9727 17.2459 14.1827 17.5 13.3335 17.5C11.0323 17.5 9.16683 15.6345 9.16683 13.3333Z" fill="white"/>
</g>
</svg>
