<svg width="32" height="32" viewBox="0 0 32 32" fill="none" xmlns="http://www.w3.org/2000/svg">
<path d="M10.6668 4C5.51218 4 1.3335 8.17868 1.3335 13.3333C1.3335 18.488 5.51218 22.6667 10.6668 22.6667H12.0947C12.0324 22.2312 12.0002 21.786 12.0002 21.3333C12.0002 20.8807 12.0324 20.4355 12.0947 20H10.6668C6.98494 20 4.00016 17.0152 4.00016 13.3333C4.00016 9.65144 6.98494 6.66667 10.6668 6.66667H21.3335C25.0154 6.66667 28.0002 9.65144 28.0002 13.3333C28.0002 13.7904 27.9542 14.2367 27.8666 14.6677C28.6472 15.4331 29.294 16.3344 29.7687 17.3333C30.3446 16.1209 30.6668 14.7648 30.6668 13.3333C30.6668 8.17868 26.4882 4 21.3335 4H10.6668ZM21.3335 17.3333C19.1243 17.3333 17.3335 19.1241 17.3335 21.3333C17.3335 23.5425 19.1243 25.3333 21.3335 25.3333C23.5427 25.3333 25.3335 23.5425 25.3335 21.3333C25.3335 19.1241 23.5427 17.3333 21.3335 17.3333ZM14.6668 21.3333C14.6668 17.6515 17.6516 14.6667 21.3335 14.6667C25.0154 14.6667 28.0002 17.6515 28.0002 21.3333C28.0002 22.6921 27.5936 23.956 26.8956 25.0099L30.2763 28.3905L28.3907 30.2761L25.01 26.8955C23.9562 27.5935 22.6923 28 21.3335 28C17.6516 28 14.6668 25.0152 14.6668 21.3333Z" fill="#1F5DF5"/>
</svg>
