<svg width="161" height="148" viewBox="0 0 161 148" fill="none" xmlns="http://www.w3.org/2000/svg">
<path d="M91.9678 0.344885L86.166 1.84077L14.6861 20.2705L8.88428 21.7664C6.06814 22.4958 3.6564 24.3124 2.17818 26.8175C0.699959 29.3225 0.275978 32.3116 0.999254 35.1288L26.1573 132.667C26.8869 135.483 28.7038 137.894 31.2094 139.372C33.715 140.85 36.7046 141.274 39.5224 140.551L39.5373 140.547L122.591 119.133L122.606 119.129C125.422 118.4 127.834 116.583 129.312 114.078C130.79 111.573 131.214 108.584 130.491 105.767L105.333 8.22845C104.603 5.41284 102.786 3.00155 100.281 1.52361C97.7752 0.0456612 94.7856 -0.378247 91.9678 0.344885Z" fill="#B4B6BA" fill-opacity="0.4"/>
<path d="M92.7569 3.40671L85.8851 5.17849L16.5451 23.0565L9.67329 24.8282C7.66785 25.3477 5.95038 26.6413 4.8977 28.4252C3.84502 30.2091 3.54309 32.3377 4.05815 34.3439L29.2162 131.883C29.7358 133.888 31.0296 135.605 32.8139 136.657C34.5982 137.71 36.7272 138.012 38.7338 137.497L38.7488 137.493L121.802 116.079L121.817 116.075C123.823 115.556 125.54 114.262 126.593 112.478C127.646 110.694 127.948 108.566 127.432 106.559L102.274 9.02079C101.755 7.01574 100.461 5.29863 98.6768 4.24615C96.8925 3.19367 94.7635 2.89178 92.7569 3.40671Z" fill="white"/>
<path d="M87.5678 34.9886L45.5531 45.8213C45.0838 45.9423 44.5857 45.8719 44.1683 45.6257C43.7509 45.3795 43.4484 44.9776 43.3274 44.5084C43.2064 44.0393 43.2768 43.5413 43.523 43.124C43.7693 42.7066 44.1712 42.4042 44.6405 42.2832L86.6553 31.4505C87.1244 31.33 87.6221 31.4007 88.0392 31.6469C88.4562 31.8932 88.7584 32.2949 88.8793 32.7638C89.0003 33.2327 88.9301 33.7304 88.6842 34.1476C88.4383 34.5647 88.0367 34.8672 87.5678 34.9886Z" fill="#B4B6BA" fill-opacity="0.4"/>
<path d="M96.4065 39.0774L47.0931 51.7919C46.6238 51.9128 46.1257 51.8425 45.7083 51.5963C45.2909 51.3501 44.9885 50.9482 44.8675 50.479C44.7464 50.0099 44.8168 49.5118 45.0631 49.0945C45.3093 48.6772 45.7113 48.3748 46.1805 48.2538L95.4939 35.5393C95.9632 35.4183 96.4613 35.4887 96.8787 35.7349C97.2961 35.9811 97.5986 36.383 97.7196 36.8521C97.8406 37.3213 97.7702 37.8193 97.524 38.2366C97.2777 38.654 96.8758 38.9564 96.4065 39.0774Z" fill="#B4B6BA" fill-opacity="0.4"/>
<path d="M94.4692 61.7448L52.4544 72.5775C52.2221 72.6374 51.9802 72.651 51.7426 72.6174C51.505 72.5839 51.2763 72.5039 51.0697 72.382C50.863 72.2601 50.6824 72.0987 50.5381 71.907C50.3938 71.7153 50.2887 71.497 50.2288 71.2647C50.1689 71.0324 50.1553 70.7906 50.1889 70.553C50.2224 70.3155 50.3024 70.0868 50.4244 69.8802C50.5463 69.6736 50.7078 69.493 50.8995 69.3487C51.0912 69.2045 51.3095 69.0994 51.5419 69.0395L93.5566 58.2068C93.789 58.1469 94.0309 58.1333 94.2685 58.1669C94.5061 58.2004 94.7347 58.2804 94.9414 58.4024C95.1481 58.5243 95.3287 58.6857 95.473 58.8774C95.6173 59.0691 95.7224 59.2873 95.7823 59.5196C95.8422 59.7519 95.8558 59.9938 95.8222 60.2313C95.7887 60.4689 95.7086 60.6975 95.5867 60.9041C95.4648 61.1108 95.3033 61.2914 95.1116 61.4356C94.9198 61.5798 94.7016 61.6849 94.4692 61.7448Z" fill="#B4B6BA" fill-opacity="0.4"/>
<path d="M103.308 65.8337L53.9945 78.5482C53.7621 78.6081 53.5202 78.6217 53.2826 78.5881C53.045 78.5546 52.8164 78.4746 52.6097 78.3526C52.403 78.2307 52.2224 78.0693 52.0781 77.8776C51.9338 77.6859 51.8287 77.4677 51.7688 77.2354C51.7089 77.0031 51.6953 76.7612 51.7289 76.5237C51.7625 76.2861 51.8425 76.0575 51.9644 75.8509C52.0863 75.6443 52.2478 75.4637 52.4395 75.3194C52.6313 75.1752 52.8495 75.0701 53.0819 75.0102L102.395 62.2957C102.865 62.1747 103.363 62.245 103.78 62.4912C104.197 62.7374 104.5 63.1393 104.621 63.6085C104.742 64.0777 104.672 64.5757 104.425 64.993C104.179 65.4103 103.777 65.7127 103.308 65.8337Z" fill="#B4B6BA" fill-opacity="0.4"/>
<path d="M101.37 88.5012L59.3555 99.3339C58.8864 99.4545 58.3886 99.3839 57.9715 99.1377C57.5543 98.8915 57.2521 98.4897 57.1311 98.0207C57.0102 97.5518 57.0804 97.054 57.3264 96.6368C57.5724 96.2196 57.974 95.9171 58.443 95.7958L100.458 84.9632C100.927 84.8422 101.425 84.9125 101.843 85.1587C102.26 85.4049 102.562 85.8068 102.683 86.276C102.804 86.7451 102.734 87.2432 102.488 87.6605C102.242 88.0778 101.84 88.3802 101.37 88.5012Z" fill="#B4B6BA" fill-opacity="0.4"/>
<path d="M110.209 92.5901L60.8954 105.305C60.663 105.365 60.421 105.378 60.1832 105.345C59.9455 105.312 59.7167 105.232 59.5098 105.11C59.303 104.988 59.1222 104.826 58.9778 104.635C58.8334 104.443 58.7282 104.225 58.6682 103.992C58.6083 103.76 58.5947 103.518 58.6284 103.28C58.662 103.042 58.7422 102.814 58.8642 102.607C58.9863 102.4 59.148 102.22 59.3399 102.075C59.5319 101.931 59.7503 101.826 59.9829 101.767L109.296 89.052C109.766 88.931 110.264 89.0014 110.681 89.2476C111.098 89.4938 111.401 89.8957 111.522 90.3648C111.643 90.834 111.573 91.332 111.326 91.7493C111.08 92.1667 110.678 92.4691 110.209 92.5901Z" fill="#B4B6BA" fill-opacity="0.4"/>
<path d="M38.3804 56.9283L23.5117 60.7619C23.2867 60.8197 23.048 60.7858 22.8479 60.6678C22.6479 60.5498 22.5028 60.3573 22.4445 60.1324L19.0315 46.8998C18.9737 46.6748 19.0075 46.4362 19.1256 46.2361C19.2436 46.0361 19.4362 45.8911 19.6611 45.8328L34.5297 41.9992C34.7547 41.9415 34.9934 41.9753 35.1935 42.0933C35.3936 42.2113 35.5386 42.4039 35.5969 42.6287L39.01 55.8613C39.0677 56.0863 39.0339 56.325 38.9159 56.525C38.7978 56.725 38.6052 56.8701 38.3804 56.9283Z" fill="#B4B6BA" fill-opacity="0.4"/>
<path d="M45.2817 83.6852L30.4131 87.5187C30.1881 87.5765 29.9494 87.5427 29.7493 87.4246C29.5492 87.3066 29.4042 87.1141 29.3459 86.8892L25.9328 73.6566C25.8751 73.4317 25.9089 73.193 26.027 72.993C26.145 72.7929 26.3376 72.6479 26.5624 72.5897L41.4311 68.7561C41.6561 68.6983 41.8948 68.7322 42.0949 68.8502C42.2949 68.9682 42.44 69.1607 42.4983 69.3856L45.9113 82.6182C45.9691 82.8431 45.9352 83.0818 45.8172 83.2818C45.6992 83.4819 45.5066 83.6269 45.2817 83.6852Z" fill="#B4B6BA" fill-opacity="0.4"/>
<path d="M52.1831 110.441L37.3145 114.275C37.0895 114.332 36.8507 114.299 36.6507 114.181C36.4506 114.062 36.3055 113.87 36.2473 113.645L32.8342 100.412C32.7764 100.188 32.8103 99.9489 32.9283 99.7488C33.0464 99.5488 33.2389 99.4038 33.4638 99.3455L48.3324 95.5119C48.5574 95.4542 48.7962 95.488 48.9962 95.606C49.1963 95.724 49.3414 95.9166 49.3996 96.1414L52.8127 109.374C52.8705 109.599 52.8366 109.838 52.7186 110.038C52.6006 110.238 52.408 110.383 52.1831 110.441Z" fill="#B4B6BA" fill-opacity="0.4"/>
<path d="M149.914 25.0698H64.1128C61.2037 25.0731 58.4146 26.23 56.3576 28.2866C54.3005 30.3433 53.1434 33.1318 53.1401 36.0404V136.77C53.1434 139.679 54.3005 142.467 56.3576 144.524C58.4146 146.58 61.2037 147.737 64.1128 147.741H149.914C152.824 147.737 155.613 146.58 157.67 144.524C159.727 142.467 160.884 139.679 160.887 136.77V36.0404C160.884 33.1318 159.727 30.3433 157.67 28.2866C155.613 26.23 152.824 25.0731 149.914 25.0698Z" fill="#B4B6BA" fill-opacity="0.4"/>
<path d="M149.915 28.2319H64.1127C62.0411 28.2343 60.0549 29.0581 58.59 30.5227C57.1251 31.9873 56.3012 33.9731 56.2988 36.0443V136.774C56.3012 138.845 57.1251 140.831 58.59 142.296C60.0549 143.76 62.0411 144.584 64.1127 144.586H149.915C151.986 144.584 153.972 143.76 155.437 142.296C156.902 140.831 157.726 138.845 157.728 136.774V36.0443C157.726 33.9731 156.902 31.9873 155.437 30.5227C153.972 29.0581 151.986 28.2343 149.915 28.2319Z" fill="white"/>
<path d="M137.001 83.5786H93.612C93.3719 83.5789 93.1341 83.5318 92.9121 83.4401C92.6902 83.3484 92.4885 83.2139 92.3186 83.0442C92.1487 82.8746 92.014 82.6731 91.922 82.4513C91.83 82.2295 91.7827 81.9918 91.7827 81.7517C91.7827 81.5116 91.83 81.2739 91.922 81.0521C92.014 80.8303 92.1487 80.6288 92.3186 80.4592C92.4885 80.2895 92.6902 80.155 92.9121 80.0633C93.1341 79.9716 93.3719 79.9245 93.612 79.9248H137.001C137.486 79.9253 137.95 80.1181 138.292 80.4606C138.634 80.8032 138.827 81.2675 138.827 81.7517C138.827 82.2359 138.634 82.7002 138.292 83.0428C137.95 83.3853 137.486 83.578 137.001 83.5786Z" fill="#B4B6BA" fill-opacity="0.4"/>
<path d="M144.539 89.7446H93.612C93.3719 89.7449 93.1341 89.6978 92.9121 89.6061C92.6902 89.5144 92.4885 89.3799 92.3186 89.2102C92.1487 89.0406 92.014 88.8391 91.922 88.6173C91.83 88.3955 91.7827 88.1578 91.7827 87.9177C91.7827 87.6776 91.83 87.4399 91.922 87.2181C92.014 86.9963 92.1487 86.7948 92.3186 86.6252C92.4885 86.4555 92.6902 86.321 92.9121 86.2293C93.1341 86.1376 93.3719 86.0906 93.612 86.0908H144.539C145.023 86.0908 145.488 86.2833 145.831 86.6259C146.173 86.9685 146.366 87.4332 146.366 87.9177C146.366 88.4022 146.173 88.8669 145.831 89.2095C145.488 89.5521 145.023 89.7446 144.539 89.7446Z" fill="#B4B6BA" fill-opacity="0.4"/>
<path d="M137.001 111.21H93.612C93.3719 111.211 93.1341 111.164 92.9121 111.072C92.6902 110.98 92.4885 110.846 92.3186 110.676C92.1487 110.506 92.014 110.305 91.922 110.083C91.83 109.861 91.7827 109.624 91.7827 109.384C91.7827 109.143 91.83 108.906 91.922 108.684C92.014 108.462 92.1487 108.261 92.3186 108.091C92.4885 107.921 92.6902 107.787 92.9121 107.695C93.1341 107.603 93.3719 107.556 93.612 107.557H137.001C137.486 107.557 137.951 107.749 138.293 108.092C138.636 108.434 138.829 108.899 138.829 109.384C138.829 109.868 138.636 110.333 138.293 110.675C137.951 111.018 137.486 111.21 137.001 111.21Z" fill="#B4B6BA" fill-opacity="0.4"/>
<path d="M144.539 117.376H93.612C93.3719 117.376 93.1341 117.329 92.9121 117.237C92.6902 117.146 92.4885 117.011 92.3186 116.842C92.1487 116.672 92.014 116.47 91.922 116.249C91.83 116.027 91.7827 115.789 91.7827 115.549C91.7827 115.309 91.83 115.071 91.922 114.849C92.014 114.628 92.1487 114.426 92.3186 114.257C92.4885 114.087 92.6902 113.952 92.9121 113.861C93.1341 113.769 93.3719 113.722 93.612 113.722H144.539C144.779 113.722 145.017 113.769 145.239 113.861C145.461 113.952 145.662 114.087 145.832 114.257C146.002 114.426 146.137 114.628 146.229 114.849C146.321 115.071 146.368 115.309 146.368 115.549C146.368 115.789 146.321 116.027 146.229 116.249C146.137 116.47 146.002 116.672 145.832 116.842C145.662 117.011 145.461 117.146 145.239 117.237C145.017 117.329 144.779 117.376 144.539 117.376Z" fill="#B4B6BA" fill-opacity="0.4"/>
<path d="M83.8924 92.5435H68.5373C68.305 92.5432 68.0823 92.4509 67.918 92.2866C67.7538 92.1224 67.6614 91.8998 67.6611 91.6675V78.002C67.6614 77.7697 67.7538 77.5471 67.918 77.3828C68.0823 77.2186 68.305 77.1262 68.5373 77.126H83.8924C84.1247 77.1262 84.3474 77.2186 84.5116 77.3828C84.6759 77.5471 84.7683 77.7697 84.7685 78.002V91.6675C84.7683 91.8998 84.6759 92.1224 84.5116 92.2866C84.3474 92.4509 84.1247 92.5432 83.8924 92.5435Z" fill="#B4B6BA" fill-opacity="0.4"/>
<path d="M83.8924 120.175H68.5373C68.305 120.175 68.0823 120.082 67.918 119.918C67.7538 119.754 67.6614 119.531 67.6611 119.299V105.633C67.6614 105.401 67.7538 105.178 67.918 105.014C68.0823 104.85 68.305 104.758 68.5373 104.757H83.8924C84.1247 104.758 84.3474 104.85 84.5116 105.014C84.6759 105.178 84.7683 105.401 84.7685 105.633V119.299C84.7683 119.531 84.6759 119.754 84.5116 119.918C84.3474 120.082 84.1247 120.175 83.8924 120.175Z" fill="#B4B6BA" fill-opacity="0.4"/>
<path d="M137.05 52.8188H105.061C104.576 52.8188 104.111 52.6263 103.769 52.2837C103.426 51.9411 103.233 51.4764 103.233 50.9919C103.233 50.5074 103.426 50.0427 103.769 49.7001C104.111 49.3575 104.576 49.165 105.061 49.165H137.05C137.534 49.165 137.999 49.3575 138.342 49.7001C138.685 50.0427 138.877 50.5074 138.877 50.9919C138.877 51.4764 138.685 51.9411 138.342 52.2837C137.999 52.6263 137.534 52.8188 137.05 52.8188Z" fill="#B4B6BA" fill-opacity="0.4"/>
<path d="M144.587 58.9848H105.061C104.821 58.9848 104.583 58.9376 104.361 58.8458C104.14 58.754 103.938 58.6194 103.769 58.4498C103.599 58.2801 103.464 58.0787 103.372 57.8571C103.281 57.6354 103.233 57.3979 103.233 57.1579C103.233 56.918 103.281 56.6805 103.372 56.4588C103.464 56.2372 103.599 56.0358 103.769 55.8661C103.938 55.6965 104.14 55.5619 104.361 55.4701C104.583 55.3783 104.821 55.3311 105.061 55.3311H144.587C145.072 55.3311 145.537 55.5235 145.879 55.8661C146.222 56.2087 146.414 56.6734 146.414 57.1579C146.414 57.6425 146.222 58.1071 145.879 58.4498C145.537 58.7924 145.072 58.9848 144.587 58.9848Z" fill="#B4B6BA" fill-opacity="0.4"/>
<path d="M97.9807 66.4567H68.4894C68.2572 66.4565 68.0344 66.3641 67.8702 66.1999C67.7059 66.0356 67.6135 65.813 67.6133 65.5807V42.5689C67.6135 42.3366 67.7059 42.1139 67.8702 41.9497C68.0344 41.7855 68.2572 41.6931 68.4894 41.6929H97.9807C98.213 41.6931 98.4357 41.7855 98.6 41.9497C98.7642 42.1139 98.8566 42.3366 98.8569 42.5689V65.5807C98.8566 65.813 98.7642 66.0356 98.6 66.1999C98.4357 66.3641 98.213 66.4565 97.9807 66.4567Z" fill="#B4B6BA" fill-opacity="0.4"/>
</svg>
