<svg width="180" height="160" viewBox="0 0 180 160" fill="none" xmlns="http://www.w3.org/2000/svg">
<g id="undraw_add_files_re_v09g 1" clip-path="url(#clip0_103_8313)">
<path id="Vector" d="M92.1631 0.344885L86.3613 1.84077L14.8814 20.2705L9.07959 21.7664C6.26345 22.4958 3.85171 24.3124 2.37349 26.8175C0.895271 29.3225 0.471291 32.3116 1.19457 35.1288L26.3526 132.667C27.0822 135.483 28.8991 137.894 31.4047 139.372C33.9103 140.85 36.8999 141.274 39.7177 140.551L39.7326 140.547L122.786 119.133L122.801 119.129C125.617 118.4 128.029 116.583 129.507 114.078C130.986 111.573 131.41 108.584 130.686 105.767L105.528 8.22845C104.799 5.41284 102.982 3.00155 100.476 1.52361C97.9705 0.0456612 94.9809 -0.378247 92.1631 0.344885Z" fill="#B4B6BA" fill-opacity="0.4"/>
<path id="Vector_2" d="M92.9523 3.40696L86.0804 5.17874L16.7404 23.0567L9.86861 24.8285C7.86316 25.3479 6.14569 26.6415 5.09301 28.4254C4.04033 30.2094 3.7384 32.338 4.25346 34.3442L29.4115 131.883C29.9311 133.888 31.225 135.605 33.0092 136.657C34.7935 137.71 36.9225 138.012 38.9291 137.497L38.9441 137.493L121.998 116.079L122.013 116.075C124.018 115.556 125.736 114.262 126.788 112.478C127.841 110.694 128.143 108.566 127.628 106.56L102.47 9.02103C101.95 7.01599 100.656 5.29887 98.8721 4.24639C97.0878 3.19391 94.9588 2.89202 92.9523 3.40696Z" fill="white"/>
<path id="Vector_3" d="M87.7631 34.9886L45.7484 45.8213C45.2791 45.9423 44.781 45.8719 44.3636 45.6257C43.9462 45.3795 43.6437 44.9776 43.5227 44.5084C43.4017 44.0393 43.4721 43.5413 43.7183 43.124C43.9646 42.7066 44.3665 42.4042 44.8358 42.2832L86.8506 31.4505C87.3197 31.33 87.8174 31.4007 88.2345 31.6469C88.6515 31.8932 88.9537 32.2949 89.0747 32.7638C89.1956 33.2327 89.1254 33.7304 88.8795 34.1476C88.6336 34.5647 88.232 34.8672 87.7631 34.9886Z" fill="#B4B6BA" fill-opacity="0.4"/>
<path id="Vector_4" d="M96.6018 39.0771L47.2884 51.7916C46.8191 51.9126 46.321 51.8422 45.9036 51.596C45.4863 51.3498 45.1838 50.948 45.0628 50.4788C44.9418 50.0096 45.0121 49.5116 45.2584 49.0943C45.5046 48.677 45.9066 48.3746 46.3758 48.2536L95.6892 35.5391C96.1585 35.4181 96.6566 35.4884 97.074 35.7346C97.4914 35.9808 97.7939 36.3827 97.9149 36.8519C98.0359 37.3211 97.9655 37.8191 97.7193 38.2364C97.473 38.6537 97.0711 38.9561 96.6018 39.0771Z" fill="#B4B6BA" fill-opacity="0.4"/>
<path id="Vector_5" d="M94.6645 61.745L52.6497 72.5777C52.4174 72.6376 52.1755 72.6511 51.9379 72.6176C51.7003 72.584 51.4716 72.504 51.265 72.3821C51.0583 72.2602 50.8777 72.0988 50.7334 71.9071C50.5891 71.7154 50.484 71.4971 50.4241 71.2648C50.3642 71.0325 50.3506 70.7907 50.3842 70.5531C50.4177 70.3156 50.4978 70.087 50.6197 69.8803C50.7416 69.6737 50.9031 69.4931 51.0948 69.3489C51.2865 69.2046 51.5048 69.0995 51.7372 69.0396L93.752 58.2069C93.9843 58.147 94.2262 58.1335 94.4638 58.167C94.7014 58.2006 94.9301 58.2806 95.1367 58.4025C95.3434 58.5244 95.524 58.6858 95.6683 58.8775C95.8126 59.0692 95.9177 59.2874 95.9776 59.5197C96.0375 59.7521 96.0511 59.9939 96.0175 60.2314C95.984 60.469 95.9039 60.6976 95.782 60.9042C95.6601 61.1109 95.4986 61.2915 95.3069 61.4357C95.1152 61.58 94.8969 61.685 94.6645 61.745Z" fill="#B4B6BA" fill-opacity="0.4"/>
<path id="Vector_6" d="M103.503 65.8336L54.1898 78.5481C53.9574 78.608 53.7155 78.6216 53.4779 78.588C53.2403 78.5544 53.0117 78.4744 52.805 78.3525C52.5983 78.2306 52.4177 78.0692 52.2734 77.8775C52.1292 77.6858 52.0241 77.4676 51.9641 77.2353C51.9042 77.003 51.8906 76.7611 51.9242 76.5236C51.9578 76.286 52.0378 76.0574 52.1597 75.8508C52.2817 75.6441 52.4431 75.4635 52.6348 75.3193C52.8266 75.175 53.0448 75.07 53.2772 75.0101L102.591 62.2956C103.06 62.1746 103.558 62.2449 103.975 62.4911C104.393 62.7373 104.695 63.1392 104.816 63.6084C104.937 64.0775 104.867 64.5756 104.621 64.9929C104.374 65.4102 103.972 65.7126 103.503 65.8336Z" fill="#B4B6BA" fill-opacity="0.4"/>
<path id="Vector_7" d="M101.566 88.5013L59.5509 99.334C59.0817 99.4546 58.5839 99.3841 58.1668 99.1378C57.7497 98.8916 57.4474 98.4898 57.3264 98.0209C57.2055 97.5519 57.2757 97.0541 57.5217 96.6369C57.7677 96.2197 58.1693 95.9172 58.6383 95.796L100.653 84.9633C101.122 84.8423 101.62 84.9126 102.038 85.1588C102.455 85.405 102.758 85.8069 102.879 86.2761C103 86.7453 102.929 87.2433 102.683 87.6606C102.437 88.0779 102.035 88.3803 101.566 88.5013Z" fill="#B4B6BA" fill-opacity="0.4"/>
<path id="Vector_8" d="M110.404 92.5899L61.0908 105.304C60.8583 105.365 60.6163 105.378 60.3786 105.345C60.1408 105.312 59.912 105.232 59.7051 105.11C59.4983 104.988 59.3175 104.826 59.1731 104.635C59.0287 104.443 58.9235 104.224 58.8636 103.992C58.8036 103.76 58.79 103.518 58.8237 103.28C58.8573 103.042 58.9375 102.814 59.0596 102.607C59.1816 102.4 59.3433 102.22 59.5352 102.075C59.7272 101.931 59.9457 101.826 60.1782 101.766L109.492 89.0519C109.961 88.9309 110.459 89.0013 110.876 89.2475C111.294 89.4937 111.596 89.8955 111.717 90.3647C111.838 90.8339 111.768 91.3319 111.522 91.7492C111.275 92.1665 110.873 92.4689 110.404 92.5899Z" fill="#B4B6BA" fill-opacity="0.4"/>
<path id="Vector_9" d="M38.5757 56.9286L23.707 60.7622C23.482 60.8199 23.2433 60.7861 23.0432 60.6681C22.8432 60.55 22.6981 60.3575 22.6398 60.1327L19.2268 46.9C19.169 46.6751 19.2029 46.4364 19.3209 46.2364C19.4389 46.0363 19.6315 45.8913 19.8564 45.8331L34.725 41.9995C34.95 41.9417 35.1887 41.9756 35.3888 42.0936C35.5889 42.2116 35.734 42.4041 35.7922 42.629L39.2053 55.8616C39.2631 56.0865 39.2292 56.3252 39.1112 56.5253C38.9931 56.7253 38.8005 56.8703 38.5757 56.9286Z" fill="#B4B6BA" fill-opacity="0.4"/>
<path id="Vector_10" d="M45.477 83.6849L30.6084 87.5185C30.3834 87.5763 30.1447 87.5424 29.9446 87.4244C29.7445 87.3064 29.5995 87.1138 29.5412 86.889L26.1281 73.6564C26.0704 73.4314 26.1042 73.1928 26.2223 72.9927C26.3403 72.7927 26.5329 72.6477 26.7577 72.5894L41.6264 68.7558C41.8514 68.6981 42.0901 68.7319 42.2902 68.8499C42.4902 68.9679 42.6353 69.1605 42.6936 69.3853L46.1067 82.6179C46.1644 82.8429 46.1306 83.0816 46.0125 83.2816C45.8945 83.4816 45.7019 83.6267 45.477 83.6849Z" fill="#B4B6BA" fill-opacity="0.4"/>
<path id="Vector_11" d="M52.3784 110.441L37.5098 114.275C37.2848 114.333 37.0461 114.299 36.846 114.181C36.6459 114.063 36.5008 113.87 36.4426 113.645L33.0295 100.413C32.9717 100.188 33.0056 99.9491 33.1236 99.7491C33.2417 99.549 33.4342 99.404 33.6591 99.3458L48.5278 95.5122C48.7528 95.4544 48.9915 95.4883 49.1915 95.6063C49.3916 95.7243 49.5367 95.9168 49.595 96.1417L53.008 109.374C53.0658 109.599 53.0319 109.838 52.9139 110.038C52.7959 110.238 52.6033 110.383 52.3784 110.441Z" fill="#B4B6BA" fill-opacity="0.4"/>
<path id="Vector_12" d="M150.11 25.0697H64.3081C61.399 25.073 58.6099 26.2299 56.5529 28.2865C54.4958 30.3432 53.3387 33.1317 53.3354 36.0403V136.77C53.3387 139.678 54.4958 142.467 56.5529 144.524C58.6099 146.58 61.399 147.737 64.3081 147.74H150.11C153.019 147.737 155.808 146.58 157.865 144.524C159.922 142.467 161.079 139.678 161.082 136.77V36.0403C161.079 33.1317 159.922 30.3432 157.865 28.2865C155.808 26.2299 153.019 25.073 150.11 25.0697Z" fill="#B4B6BA" fill-opacity="0.4"/>
<path id="Vector_13" d="M150.11 28.2318H64.308C62.2364 28.2341 60.2502 29.058 58.7853 30.5226C57.3205 31.9872 56.4965 33.9729 56.4941 36.0442V136.774C56.4965 138.845 57.3205 140.831 58.7853 142.295C60.2502 143.76 62.2364 144.584 64.308 144.586H150.11C152.181 144.584 154.168 143.76 155.632 142.295C157.097 140.831 157.921 138.845 157.924 136.774V36.0442C157.921 33.9729 157.097 31.9872 155.632 30.5226C154.168 29.058 152.181 28.2342 150.11 28.2318Z" fill="white"/>
<path id="Vector_14" d="M159.124 159.996C170.186 159.996 179.154 151.03 179.154 139.97C179.154 128.91 170.186 119.943 159.124 119.943C148.062 119.943 139.094 128.91 139.094 139.97C139.094 151.03 148.062 159.996 159.124 159.996Z" fill="#1F5DF5"/>
<path id="Vector_15" d="M168.704 137.358H161.737V130.392C161.737 129.699 161.461 129.035 160.971 128.545C160.481 128.055 159.817 127.78 159.124 127.78C158.431 127.78 157.766 128.055 157.277 128.545C156.787 129.035 156.511 129.699 156.511 130.392V137.358H149.544C148.851 137.358 148.187 137.633 147.697 138.123C147.207 138.613 146.932 139.277 146.932 139.97C146.932 140.662 147.207 141.327 147.697 141.817C148.187 142.307 148.851 142.582 149.544 142.582H156.511V149.547C156.511 150.24 156.787 150.905 157.277 151.395C157.766 151.884 158.431 152.16 159.124 152.16C159.817 152.16 160.481 151.884 160.971 151.395C161.461 150.905 161.737 150.24 161.737 149.547V142.582H168.704C169.396 142.582 170.061 142.307 170.551 141.817C171.041 141.327 171.316 140.662 171.316 139.97C171.316 139.277 171.041 138.613 170.551 138.123C170.061 137.633 169.396 137.358 168.704 137.358Z" fill="white"/>
<path id="Vector_16" d="M137.197 83.5786H93.8073C93.5672 83.5789 93.3294 83.5318 93.1074 83.4401C92.8855 83.3484 92.6838 83.2139 92.5139 83.0442C92.344 82.8746 92.2093 82.6731 92.1173 82.4513C92.0254 82.2295 91.978 81.9918 91.978 81.7517C91.978 81.5116 92.0254 81.2739 92.1173 81.0521C92.2093 80.8303 92.344 80.6288 92.5139 80.4592C92.6838 80.2895 92.8855 80.155 93.1074 80.0633C93.3294 79.9716 93.5672 79.9245 93.8073 79.9248H137.197C137.681 79.9253 138.145 80.1181 138.487 80.4606C138.83 80.8032 139.022 81.2675 139.022 81.7517C139.022 82.2359 138.83 82.7002 138.487 83.0428C138.145 83.3853 137.681 83.578 137.197 83.5786Z" fill="#B4B6BA" fill-opacity="0.4"/>
<path id="Vector_17" d="M144.734 89.7444H93.8073C93.5672 89.7446 93.3294 89.6976 93.1074 89.6059C92.8855 89.5142 92.6838 89.3797 92.5139 89.21C92.344 89.0403 92.2093 88.8388 92.1173 88.6171C92.0254 88.3953 91.978 88.1575 91.978 87.9175C91.978 87.6774 92.0254 87.4397 92.1173 87.2179C92.2093 86.9961 92.344 86.7946 92.5139 86.6249C92.6838 86.4553 92.8855 86.3207 93.1074 86.2291C93.3294 86.1374 93.5672 86.0903 93.8073 86.0906H144.734C145.219 86.0906 145.683 86.283 146.026 86.6257C146.369 86.9683 146.561 87.4329 146.561 87.9175C146.561 88.402 146.369 88.8667 146.026 89.2093C145.683 89.5519 145.219 89.7444 144.734 89.7444Z" fill="#B4B6BA" fill-opacity="0.4"/>
<path id="Vector_18" d="M137.197 111.21H93.8073C93.5672 111.211 93.3294 111.164 93.1074 111.072C92.8855 110.98 92.6838 110.846 92.5139 110.676C92.344 110.506 92.2093 110.305 92.1173 110.083C92.0254 109.861 91.978 109.623 91.978 109.383C91.978 109.143 92.0254 108.906 92.1173 108.684C92.2093 108.462 92.344 108.261 92.5139 108.091C92.6838 107.921 92.8855 107.787 93.1074 107.695C93.3294 107.603 93.5672 107.556 93.8073 107.557H137.197C137.681 107.557 138.146 107.749 138.489 108.092C138.831 108.434 139.024 108.899 139.024 109.383C139.024 109.868 138.831 110.333 138.489 110.675C138.146 111.018 137.681 111.21 137.197 111.21Z" fill="#B4B6BA" fill-opacity="0.4"/>
<path id="Vector_19" d="M144.734 117.376H93.8073C93.5672 117.376 93.3294 117.329 93.1074 117.238C92.8855 117.146 92.6838 117.011 92.5139 116.842C92.344 116.672 92.2093 116.471 92.1173 116.249C92.0254 116.027 91.978 115.789 91.978 115.549C91.978 115.309 92.0254 115.071 92.1173 114.85C92.2093 114.628 92.344 114.426 92.5139 114.257C92.6838 114.087 92.8855 113.952 93.1074 113.861C93.3294 113.769 93.5672 113.722 93.8073 113.722H144.734C144.974 113.722 145.212 113.769 145.434 113.861C145.656 113.952 145.858 114.087 146.027 114.257C146.197 114.426 146.332 114.628 146.424 114.85C146.516 115.071 146.563 115.309 146.563 115.549C146.563 115.789 146.516 116.027 146.424 116.249C146.332 116.471 146.197 116.672 146.027 116.842C145.858 117.011 145.656 117.146 145.434 117.238C145.212 117.329 144.974 117.376 144.734 117.376Z" fill="#B4B6BA" fill-opacity="0.4"/>
<path id="Vector_20" d="M84.0877 92.5433H68.7326C68.5003 92.543 68.2776 92.4506 68.1134 92.2864C67.9491 92.1222 67.8567 91.8995 67.8564 91.6673V78.0017C67.8567 77.7695 67.9491 77.5468 68.1134 77.3826C68.2776 77.2184 68.5003 77.126 68.7326 77.1257H84.0877C84.32 77.126 84.5427 77.2184 84.7069 77.3826C84.8712 77.5468 84.9636 77.7695 84.9639 78.0017V91.6673C84.9636 91.8995 84.8712 92.1222 84.7069 92.2864C84.5427 92.4506 84.32 92.543 84.0877 92.5433Z" fill="#B4B6BA" fill-opacity="0.4"/>
<path id="Vector_21" d="M84.0877 120.175H68.7326C68.5003 120.175 68.2776 120.082 68.1134 119.918C67.9491 119.754 67.8567 119.531 67.8564 119.299V105.633C67.8567 105.401 67.9491 105.179 68.1134 105.014C68.2776 104.85 68.5003 104.758 68.7326 104.757H84.0877C84.32 104.758 84.5427 104.85 84.7069 105.014C84.8712 105.179 84.9636 105.401 84.9639 105.633V119.299C84.9636 119.531 84.8712 119.754 84.7069 119.918C84.5427 120.082 84.32 120.175 84.0877 120.175Z" fill="#B4B6BA" fill-opacity="0.4"/>
<path id="Vector_22" d="M137.245 52.8189H105.255C104.771 52.8189 104.306 52.6265 103.963 52.2839C103.621 51.9412 103.428 51.4766 103.428 50.992C103.428 50.5075 103.621 50.0428 103.963 49.7002C104.306 49.3576 104.771 49.1652 105.255 49.1652H137.245C137.729 49.1652 138.194 49.3576 138.537 49.7002C138.879 50.0428 139.072 50.5075 139.072 50.992C139.072 51.4766 138.879 51.9412 138.537 52.2839C138.194 52.6265 137.729 52.8189 137.245 52.8189Z" fill="#B4B6BA" fill-opacity="0.4"/>
<path id="Vector_23" d="M144.782 58.9847H105.255C105.016 58.9847 104.778 58.9375 104.556 58.8456C104.335 58.7538 104.133 58.6193 103.963 58.4496C103.794 58.28 103.659 58.0786 103.567 57.8569C103.475 57.6353 103.428 57.3977 103.428 57.1578C103.428 56.9179 103.475 56.6803 103.567 56.4587C103.659 56.2371 103.794 56.0357 103.963 55.866C104.133 55.6964 104.335 55.5618 104.556 55.47C104.778 55.3782 105.016 55.3309 105.255 55.3309H144.782C145.267 55.3309 145.731 55.5234 146.074 55.866C146.417 56.2086 146.609 56.6733 146.609 57.1578C146.609 57.6423 146.417 58.107 146.074 58.4496C145.731 58.7922 145.267 58.9847 144.782 58.9847Z" fill="#B4B6BA" fill-opacity="0.4"/>
<path id="Vector_24" d="M98.176 66.4568H68.6848C68.4525 66.4566 68.2298 66.3642 68.0655 66.2C67.9012 66.0358 67.8088 65.8131 67.8086 65.5808V42.569C67.8088 42.3367 67.9012 42.1141 68.0655 41.9498C68.2298 41.7856 68.4525 41.6932 68.6848 41.693H98.176C98.4083 41.6932 98.631 41.7856 98.7953 41.9498C98.9595 42.1141 99.0519 42.3367 99.0522 42.569V65.5808C99.0519 65.8131 98.9595 66.0358 98.7953 66.2C98.631 66.3642 98.4083 66.4566 98.176 66.4568Z" fill="#B4B6BA" fill-opacity="0.4"/>
</g>
<defs>
<clipPath id="clip0_103_8313">
<rect width="178.308" height="160" fill="white" transform="translate(0.845703)"/>
</clipPath>
</defs>
</svg>
